<svg width="93" height="110" viewBox="0 0 93 110" fill="none" xmlns="http://www.w3.org/2000/svg">
<g clip-path="url(#clip0)">
<path d="M77.5368 105.6C71.5503 111.386 64.9453 110.484 58.6496 107.756C51.9562 104.973 45.8372 104.797 38.7684 107.756C29.9654 111.54 25.2933 110.44 19.9916 105.6C-9.94067 74.9099 -5.52262 28.16 28.4964 26.4C36.7471 26.84 42.5237 30.943 47.3836 31.284C54.6071 29.821 61.5213 25.63 69.2529 26.18C78.5419 26.928 85.4893 30.58 90.1282 37.147C71.0201 48.587 75.5486 73.667 93.0994 80.7069C89.587 89.8919 85.0806 98.9669 77.5257 105.677L77.5368 105.6ZM46.7209 26.07C45.8262 12.43 56.9266 1.20998 69.6947 0.109985C71.4509 15.84 55.3361 27.61 46.7209 26.07Z" fill="#464646"/>
</g>
<defs>
<clipPath id="clip0">
<rect width="93" height="110" fill="white"/>
</clipPath>
</defs>
</svg>
