<svg width="255" height="78" viewBox="0 0 255 78" fill="none" xmlns="http://www.w3.org/2000/svg">
<path d="M101.16 46.56C101.128 47.328 100.824 47.952 100.248 48.432C99.672 48.912 99 49.152 98.232 49.152H82.392C82.776 51.04 83.656 52.528 85.032 53.616C86.408 54.672 87.96 55.2 89.688 55.2C91 55.2 92.024 55.088 92.76 54.864C93.496 54.608 94.072 54.352 94.488 54.096C94.936 53.808 95.24 53.616 95.4 53.52C95.976 53.232 96.52 53.088 97.032 53.088C97.704 53.088 98.28 53.328 98.76 53.808C99.24 54.288 99.48 54.848 99.48 55.488C99.48 56.352 99.032 57.136 98.136 57.84C97.24 58.576 96.04 59.2 94.536 59.712C93.032 60.224 91.512 60.48 89.976 60.48C87.288 60.48 84.936 59.92 82.92 58.8C80.936 57.68 79.4 56.144 78.312 54.192C77.224 52.208 76.68 49.984 76.68 47.52C76.68 44.768 77.256 42.352 78.408 40.272C79.56 38.192 81.08 36.608 82.968 35.52C84.856 34.4 86.872 33.84 89.016 33.84C91.128 33.84 93.112 34.416 94.968 35.568C96.856 36.72 98.36 38.272 99.48 40.224C100.6 42.176 101.16 44.288 101.16 46.56ZM89.016 39.12C85.304 39.12 83.112 40.864 82.44 44.352H95.016V44.016C94.888 42.672 94.232 41.52 93.048 40.56C91.864 39.6 90.52 39.12 89.016 39.12ZM102.316 56.016C102.028 55.632 101.884 55.152 101.884 54.576C101.884 53.744 102.3 53.04 103.132 52.464C103.58 52.176 104.044 52.032 104.524 52.032C105.196 52.032 105.836 52.336 106.444 52.944C107.404 53.936 108.396 54.672 109.42 55.152C110.476 55.632 111.74 55.872 113.212 55.872C115.708 55.776 116.956 54.832 116.956 53.04C116.956 52.112 116.524 51.408 115.66 50.928C114.828 50.448 113.516 49.968 111.724 49.488C109.868 48.976 108.348 48.464 107.164 47.952C106.012 47.44 105.004 46.672 104.14 45.648C103.308 44.592 102.892 43.184 102.892 41.424C102.892 39.888 103.324 38.56 104.188 37.44C105.084 36.288 106.236 35.408 107.644 34.8C109.084 34.16 110.604 33.84 112.204 33.84C113.836 33.84 115.468 34.144 117.1 34.752C118.732 35.36 120.012 36.256 120.94 37.44C121.356 37.952 121.564 38.528 121.564 39.168C121.564 39.904 121.26 40.512 120.652 40.992C120.204 41.344 119.692 41.52 119.116 41.52C118.412 41.52 117.836 41.296 117.388 40.848C116.812 40.144 116.06 39.584 115.132 39.168C114.236 38.752 113.212 38.544 112.06 38.544C109.628 38.544 108.412 39.424 108.412 41.184C108.412 41.888 108.636 42.464 109.084 42.912C109.532 43.328 110.092 43.664 110.764 43.92C111.468 44.144 112.444 44.432 113.692 44.784C115.42 45.264 116.86 45.76 118.012 46.272C119.164 46.784 120.14 47.568 120.94 48.624C121.74 49.68 122.14 51.072 122.14 52.8C122.14 54.368 121.676 55.744 120.748 56.928C119.82 58.08 118.62 58.96 117.148 59.568C115.708 60.176 114.22 60.48 112.684 60.48C110.572 60.48 108.604 60.128 106.78 59.424C104.956 58.72 103.468 57.584 102.316 56.016ZM138.096 33.84C140.304 33.84 142.304 34.416 144.096 35.568C145.888 36.688 147.296 38.256 148.32 40.272C149.376 42.288 149.904 44.576 149.904 47.136C149.904 49.696 149.392 52 148.368 54.048C147.344 56.064 145.936 57.648 144.144 58.8C142.384 59.92 140.432 60.48 138.288 60.48C136.752 60.48 135.296 60.176 133.92 59.568C132.576 58.928 131.456 58.16 130.56 57.264V66.672C130.56 67.504 130.288 68.192 129.744 68.736C129.2 69.312 128.512 69.6 127.68 69.6C126.848 69.6 126.16 69.328 125.616 68.784C125.072 68.24 124.8 67.536 124.8 66.672V37.248C124.8 36.416 125.072 35.728 125.616 35.184C126.16 34.608 126.848 34.32 127.68 34.32C128.512 34.32 129.2 34.608 129.744 35.184C130.288 35.728 130.56 36.416 130.56 37.248V37.44C131.328 36.48 132.4 35.648 133.776 34.944C135.152 34.208 136.592 33.84 138.096 33.84ZM137.376 55.2C139.424 55.2 141.104 54.432 142.416 52.896C143.728 51.36 144.384 49.44 144.384 47.136C144.384 44.832 143.728 42.928 142.416 41.424C141.136 39.888 139.456 39.12 137.376 39.12C135.296 39.12 133.6 39.888 132.288 41.424C130.976 42.928 130.32 44.832 130.32 47.136C130.32 49.44 130.976 51.36 132.288 52.896C133.6 54.432 135.296 55.2 137.376 55.2ZM173.33 33.84C174.162 33.84 174.85 34.112 175.394 34.656C175.938 35.2 176.21 35.904 176.21 36.768V57.072C176.21 57.904 175.938 58.608 175.394 59.184C174.85 59.728 174.162 60 173.33 60C172.498 60 171.81 59.728 171.266 59.184C170.754 58.64 170.482 57.952 170.45 57.12C169.65 58.048 168.562 58.848 167.186 59.52C165.842 60.16 164.418 60.48 162.914 60.48C160.706 60.48 158.706 59.92 156.914 58.8C155.122 57.648 153.698 56.064 152.642 54.048C151.618 52.032 151.106 49.744 151.106 47.184C151.106 44.624 151.618 42.336 152.642 40.32C153.666 38.272 155.058 36.688 156.818 35.568C158.61 34.416 160.578 33.84 162.722 33.84C164.258 33.84 165.698 34.128 167.042 34.704C168.386 35.248 169.522 35.952 170.45 36.816V36.768C170.45 35.936 170.722 35.248 171.266 34.704C171.81 34.128 172.498 33.84 173.33 33.84ZM163.634 55.2C165.714 55.2 167.41 54.448 168.722 52.944C170.034 51.408 170.69 49.488 170.69 47.184C170.69 44.88 170.034 42.96 168.722 41.424C167.41 39.888 165.714 39.12 163.634 39.12C161.586 39.12 159.906 39.888 158.594 41.424C157.282 42.96 156.626 44.88 156.626 47.184C156.626 49.488 157.266 51.408 158.546 52.944C159.858 54.448 161.554 55.2 163.634 55.2ZM194.021 33.84C197.285 33.84 199.541 34.816 200.789 36.768C202.037 38.688 202.661 41.36 202.661 44.784V57.072C202.661 57.904 202.389 58.608 201.845 59.184C201.301 59.728 200.613 60 199.781 60C198.949 60 198.261 59.728 197.717 59.184C197.173 58.608 196.901 57.904 196.901 57.072V44.784C196.901 43.024 196.533 41.648 195.797 40.656C195.061 39.632 193.797 39.12 192.005 39.12C190.149 39.12 188.693 39.664 187.637 40.752C186.581 41.808 186.053 43.152 186.053 44.784V57.072C186.053 57.904 185.781 58.608 185.237 59.184C184.693 59.728 184.005 60 183.173 60C182.341 60 181.653 59.728 181.109 59.184C180.565 58.608 180.293 57.904 180.293 57.072V37.248C180.293 36.416 180.565 35.728 181.109 35.184C181.653 34.608 182.341 34.32 183.173 34.32C184.005 34.32 184.693 34.608 185.237 35.184C185.781 35.728 186.053 36.416 186.053 37.248V38.064C186.917 36.912 188.037 35.92 189.413 35.088C190.821 34.256 192.357 33.84 194.021 33.84ZM205.238 56.016C204.95 55.632 204.806 55.152 204.806 54.576C204.806 53.744 205.222 53.04 206.054 52.464C206.502 52.176 206.966 52.032 207.446 52.032C208.118 52.032 208.758 52.336 209.366 52.944C210.326 53.936 211.318 54.672 212.342 55.152C213.398 55.632 214.662 55.872 216.134 55.872C218.63 55.776 219.878 54.832 219.878 53.04C219.878 52.112 219.446 51.408 218.582 50.928C217.75 50.448 216.438 49.968 214.646 49.488C212.79 48.976 211.27 48.464 210.086 47.952C208.934 47.44 207.926 46.672 207.062 45.648C206.23 44.592 205.814 43.184 205.814 41.424C205.814 39.888 206.246 38.56 207.11 37.44C208.006 36.288 209.158 35.408 210.566 34.8C212.006 34.16 213.526 33.84 215.126 33.84C216.758 33.84 218.39 34.144 220.022 34.752C221.654 35.36 222.934 36.256 223.862 37.44C224.278 37.952 224.486 38.528 224.486 39.168C224.486 39.904 224.182 40.512 223.574 40.992C223.126 41.344 222.614 41.52 222.038 41.52C221.334 41.52 220.758 41.296 220.31 40.848C219.734 40.144 218.982 39.584 218.054 39.168C217.158 38.752 216.134 38.544 214.982 38.544C212.55 38.544 211.334 39.424 211.334 41.184C211.334 41.888 211.558 42.464 212.006 42.912C212.454 43.328 213.014 43.664 213.686 43.92C214.39 44.144 215.366 44.432 216.614 44.784C218.342 45.264 219.782 45.76 220.934 46.272C222.086 46.784 223.062 47.568 223.862 48.624C224.662 49.68 225.062 51.072 225.062 52.8C225.062 54.368 224.598 55.744 223.67 56.928C222.742 58.08 221.542 58.96 220.07 59.568C218.63 60.176 217.142 60.48 215.606 60.48C213.494 60.48 211.526 60.128 209.702 59.424C207.878 58.72 206.39 57.584 205.238 56.016ZM252.394 47.184C252.394 49.744 251.818 52.048 250.666 54.096C249.514 56.112 247.93 57.68 245.914 58.8C243.93 59.92 241.738 60.48 239.338 60.48C236.906 60.48 234.698 59.92 232.714 58.8C230.73 57.68 229.162 56.112 228.01 54.096C226.858 52.048 226.282 49.744 226.282 47.184C226.282 44.624 226.858 42.336 228.01 40.32C229.162 38.272 230.73 36.688 232.714 35.568C234.698 34.416 236.906 33.84 239.338 33.84C241.738 33.84 243.93 34.416 245.914 35.568C247.93 36.688 249.514 38.272 250.666 40.32C251.818 42.336 252.394 44.624 252.394 47.184ZM246.634 47.184C246.634 45.616 246.298 44.224 245.626 43.008C244.986 41.76 244.106 40.8 242.986 40.128C241.898 39.456 240.682 39.12 239.338 39.12C237.994 39.12 236.762 39.456 235.642 40.128C234.554 40.8 233.674 41.76 233.002 43.008C232.362 44.224 232.042 45.616 232.042 47.184C232.042 48.752 232.362 50.144 233.002 51.36C233.674 52.576 234.554 53.52 235.642 54.192C236.762 54.864 237.994 55.2 239.338 55.2C240.682 55.2 241.898 54.864 242.986 54.192C244.106 53.52 244.986 52.576 245.626 51.36C246.298 50.144 246.634 48.752 246.634 47.184Z" fill="white"/>
<rect x="18" y="21" width="50" height="50" rx="9" fill="url(#paint0_linear)"/>
<path d="M41.915 39.9014C31.9366 40.5752 28.1605 35.4357 25.2559 32.8699C23.6156 48.7153 28.0922 50.9599 32.9447 53.2006C37.7972 55.4413 49.3816 50.909 56.4554 53.5727C56.0965 42.291 51.8933 39.2277 41.915 39.9014Z" fill="url(#paint1_linear)"/>
<g filter="url(#filter0_d)">
<path d="M58.7473 30.7561H42.7779C43.4859 35.4081 48.0289 35.4081 48.0289 35.4081H50.3889L47.1439 58.1186H39.7886C39.7886 59.7086 41.7048 62.7314 43.9861 62.7314H55.7776C56.2234 62.6922 57.1425 62.2014 57.2526 60.5526C57.3627 58.9038 55.9611 58.243 55.2466 58.1186H51.9426L55.0893 35.4081C56.1906 35.4474 58.586 35.5023 59.3569 35.4081C60.3206 35.2904 61.1466 34.7211 61.1466 32.8171C61.1466 31.2939 59.547 30.8084 58.7473 30.7561Z" fill="url(#paint2_linear)"/>
</g>
<g filter="url(#filter1_d)">
<path d="M31.38 40.8021C28.8452 39.4155 25.9061 35.3793 25.2815 32.7073C24.992 34.5389 24.3378 41.1921 25.4689 44.0912C26.8828 47.7152 31.5503 50.6892 35.3831 50.6892C39.2159 50.6892 47.0349 49.5075 50.6974 50.4529C53.6273 51.2092 55.7851 52.2189 56.4551 53.6829C55.7335 44.4225 48.6338 43.6798 42.6229 43.264C38.6368 42.9883 34.5484 42.5353 31.38 40.8021Z" fill="url(#paint3_linear)" fill-opacity="0.7"/>
</g>
<g filter="url(#filter2_d)">
<path d="M31.5628 49.0847C26.8403 47.29 25.5746 40.0524 25.3024 32.8699C22.1722 54.811 35.3735 55.4014 41.2766 54.0829C47.1797 52.7645 51.9942 52.3906 56.5364 53.6894C55.1074 51.5051 53.3722 50.226 48.3877 49.9702C43.4032 49.7144 37.4659 51.328 31.5628 49.0847Z" fill="url(#paint4_linear)"/>
</g>
<defs>
<filter id="filter0_d" x="22.7886" y="20.7561" width="41.358" height="51.9753" filterUnits="userSpaceOnUse" color-interpolation-filters="sRGB">
<feFlood flood-opacity="0" result="BackgroundImageFix"/>
<feColorMatrix in="SourceAlpha" type="matrix" values="0 0 0 0 0 0 0 0 0 0 0 0 0 0 0 0 0 0 127 0" result="hardAlpha"/>
<feOffset dx="-7"/>
<feGaussianBlur stdDeviation="5"/>
<feColorMatrix type="matrix" values="0 0 0 0 0 0 0 0 0 0 0 0 0 0 0 0 0 0 0.25 0"/>
<feBlend mode="normal" in2="BackgroundImageFix" result="effect1_dropShadow"/>
<feBlend mode="normal" in="SourceGraphic" in2="effect1_dropShadow" result="shape"/>
</filter>
<filter id="filter1_d" x="2.8291" y="-4.29272" width="75.626" height="64.9756" filterUnits="userSpaceOnUse" color-interpolation-filters="sRGB">
<feFlood flood-opacity="0" result="BackgroundImageFix"/>
<feColorMatrix in="SourceAlpha" type="matrix" values="0 0 0 0 0 0 0 0 0 0 0 0 0 0 0 0 0 0 127 0" result="hardAlpha"/>
<feOffset dy="-15"/>
<feGaussianBlur stdDeviation="11"/>
<feColorMatrix type="matrix" values="0 0 0 0 0 0 0 0 0 0 0 0 0 0 0 0 0 0 0.25 0"/>
<feBlend mode="normal" in2="BackgroundImageFix" result="effect1_dropShadow"/>
<feBlend mode="normal" in="SourceGraphic" in2="effect1_dropShadow" result="shape"/>
</filter>
<filter id="filter2_d" x="-4.1709" y="-14.1301" width="89.7073" height="79.626" filterUnits="userSpaceOnUse" color-interpolation-filters="sRGB">
<feFlood flood-opacity="0" result="BackgroundImageFix"/>
<feColorMatrix in="SourceAlpha" type="matrix" values="0 0 0 0 0 0 0 0 0 0 0 0 0 0 0 0 0 0 127 0" result="hardAlpha"/>
<feOffset dy="-18"/>
<feGaussianBlur stdDeviation="14.5"/>
<feColorMatrix type="matrix" values="0 0 0 0 0 0 0 0 0 0 0 0 0 0 0 0 0 0 0.25 0"/>
<feBlend mode="normal" in2="BackgroundImageFix" result="effect1_dropShadow"/>
<feBlend mode="normal" in="SourceGraphic" in2="effect1_dropShadow" result="shape"/>
</filter>
<linearGradient id="paint0_linear" x1="53.8642" y1="27.6049" x2="33.3086" y2="67.2963" gradientUnits="userSpaceOnUse">
<stop stop-color="#303030"/>
<stop offset="1" stop-color="#232323"/>
</linearGradient>
<linearGradient id="paint1_linear" x1="40.683" y1="32.8699" x2="40.683" y2="53.8456" gradientUnits="userSpaceOnUse">
<stop stop-color="#028987"/>
<stop offset="1" stop-color="#025A42"/>
</linearGradient>
<linearGradient id="paint2_linear" x1="38.1531" y1="40.9791" x2="55.6172" y2="49.8308" gradientUnits="userSpaceOnUse">
<stop stop-color="#03756B"/>
<stop offset="1" stop-color="#E3ED24"/>
</linearGradient>
<linearGradient id="paint3_linear" x1="36.4222" y1="37.0403" x2="50.9259" y2="53.1313" gradientUnits="userSpaceOnUse">
<stop stop-color="#51FBE5"/>
<stop offset="1" stop-color="#A4D76C"/>
</linearGradient>
<linearGradient id="paint4_linear" x1="31.1885" y1="41.3512" x2="59.4224" y2="53.3544" gradientUnits="userSpaceOnUse">
<stop stop-color="#A3D972"/>
<stop offset="1" stop-color="#FFF500"/>
</linearGradient>
</defs>
</svg>
