<svg width="112" height="131" viewBox="0 0 112 131" fill="none" xmlns="http://www.w3.org/2000/svg">
<path d="M54.1744 33.2871C54.1744 33.707 53.7534 33.707 53.7534 33.707H53.3323C52.9113 33.707 52.9113 33.2871 52.4902 32.8673C52.4902 32.8673 52.0691 32.4474 52.0691 32.0275C52.0691 31.6076 52.0691 31.6076 52.4902 31.6076L53.3323 32.0275C53.7534 32.4474 54.1744 32.8673 54.1744 33.2871ZM46.5955 29.0884C46.5955 26.9891 45.7534 25.7294 44.4902 25.7294C44.4902 25.7294 44.4902 26.1493 44.0692 26.1493V26.9891H45.3323C45.3323 27.8288 45.7534 28.2487 45.7534 29.0884H46.5955ZM61.3323 26.9891C62.1744 26.9891 62.5955 27.8288 63.0165 29.0884H63.8586C63.4376 28.6685 63.4376 28.2487 63.4376 27.8288C63.4376 27.4089 63.4376 26.9891 63.0165 26.5692C62.5955 26.1493 62.1744 25.7294 61.7534 25.7294C61.7534 25.7294 61.3323 26.1493 60.9113 26.1493C60.9113 26.5692 61.3323 26.5692 61.3323 26.9891ZM48.7007 33.707C48.2797 33.707 48.2797 33.707 48.2797 33.2871C48.2797 32.8673 48.2797 32.4474 48.7007 32.0275C49.5428 32.0275 49.9639 31.6076 49.9639 31.6076C50.3849 31.6076 50.3849 32.0275 50.3849 32.0275C50.3849 32.4474 49.9639 32.8673 49.1218 33.707H48.7007ZM44.0692 33.2871C42.3849 32.4474 41.9639 31.1878 41.9639 29.0884C41.9639 27.8288 41.9639 26.9891 42.806 26.1493C43.227 25.3096 44.0692 24.8897 44.9113 24.8897C45.7534 24.8897 46.1744 25.3096 47.0165 26.1493C47.4376 27.4089 47.8586 28.6685 47.8586 29.9282V30.348V30.7679H48.2797V30.348C48.7007 30.348 48.7007 29.5083 48.7007 27.8288C48.7007 26.5692 48.7007 25.3096 47.8586 24.05C47.0165 22.7903 46.1744 21.9506 44.4902 21.9506C43.227 21.9506 41.9639 22.7903 41.5428 24.05C40.7007 25.7294 40.5323 26.9891 40.5323 29.0884C40.5323 30.7679 41.1218 32.4474 42.806 34.1269C43.227 33.707 43.6481 33.707 44.0692 33.2871ZM96.7007 92.4891C97.1218 92.4891 97.1218 92.3211 97.1218 91.9432C97.1218 91.0195 96.7007 89.9278 95.4376 88.7102C94.1744 87.4506 92.0691 86.6528 89.5428 86.3169C89.1218 86.275 88.7007 86.275 88.7007 86.275C88.2797 86.191 88.2797 86.191 87.8586 86.191C87.4376 86.149 86.5955 86.065 86.1744 85.981C87.4376 82.0762 87.8586 78.6333 87.8586 75.6102C87.8586 71.4115 87.0165 68.4724 85.3323 65.9532C83.6481 63.4339 81.9639 62.1743 79.8586 61.7544C79.4376 62.1743 79.4376 62.1743 79.4376 62.5942C81.5428 63.4339 83.6481 65.1134 84.9112 67.6326C86.1744 70.5718 86.5955 73.091 86.5955 76.0301C86.5955 78.3814 86.1744 81.8663 84.4902 86.3169C82.806 86.9887 81.1218 88.5423 79.8586 90.9775C79.8586 91.3554 79.8586 91.5653 80.2797 91.5653C80.2797 91.5653 80.7007 91.1875 81.1218 90.4737C81.9639 89.7599 82.3849 89.0461 83.227 88.3323C84.4902 87.6185 85.3323 87.2407 86.5955 87.2407C88.7007 87.2407 90.806 87.5346 92.0691 88.1224C93.7534 88.6682 94.5955 89.256 95.0165 89.9278C95.4376 90.5576 95.8586 91.1455 96.2797 91.6913C96.2797 92.2371 96.7007 92.4891 96.7007 92.4891V92.4891ZM57.9639 31.6076C57.5428 31.1878 57.5428 30.348 57.5428 29.5083C57.5428 27.8288 57.5428 26.9891 58.3849 25.7294C59.227 24.8897 60.0691 24.4698 60.9113 24.4698C62.1744 24.4698 63.0165 25.3096 63.8586 26.1493C64.2797 27.4089 64.7007 28.2487 64.7007 29.5083C64.7007 31.6076 63.8586 32.8673 62.1744 33.2871C62.1744 33.2871 62.5955 33.707 63.0165 33.707C63.8586 33.707 64.2797 34.1269 65.1218 34.5467C65.5428 32.0275 65.9639 30.348 65.9639 28.2487C65.9639 25.7294 65.5428 24.05 64.7007 22.7903C63.4376 21.5307 62.1744 21.1108 60.4902 21.1108C59.227 21.1108 57.9639 21.5307 56.7007 22.3705C55.8586 23.6301 55.4376 24.4698 55.4376 25.7294C55.4376 27.8288 55.8586 29.5083 56.7007 31.1878C57.1218 31.1878 57.5428 31.6076 57.9639 31.6076ZM63.0165 38.3256C57.5428 42.1044 53.3323 43.7839 49.9639 43.7839C47.0165 43.7839 44.0692 42.5243 41.5428 40.425C41.9639 41.2647 42.3849 42.1044 42.806 42.5243L45.3323 45.0435C47.0165 46.723 49.1218 47.5628 51.227 47.5628C54.1744 47.5628 57.5428 45.8833 61.7534 42.9442L65.5428 40.425C66.3849 39.5852 67.227 38.7455 67.227 37.4859C67.227 37.066 67.227 36.6461 66.806 36.6461C66.3849 35.8064 64.2797 34.5467 60.0691 33.2871C56.2797 31.6076 53.3323 30.7679 51.6481 30.7679C50.3849 30.7679 48.2797 31.6076 45.3323 33.2871C42.806 34.9666 41.1218 36.6461 41.1218 38.3256C41.1218 38.3256 41.5428 38.7455 41.9639 39.5852C44.4902 41.6846 47.0165 42.9442 49.5428 42.9442C52.9113 42.9442 57.1218 41.2647 62.5955 37.066V37.9057C63.0165 37.9057 63.0165 38.3256 63.0165 38.3256ZM72.7007 123.14C74.3849 126.297 77.3323 127.884 80.7007 127.884C81.5428 127.884 82.3849 127.758 83.227 127.506C84.0691 127.338 84.9112 127.045 85.3323 126.709C85.7534 126.415 86.1744 126.121 86.5955 125.785C87.4376 125.491 87.4376 125.281 87.8586 125.071L95.0165 118.899C96.7007 117.56 98.3849 116.388 100.49 115.372C102.174 114.364 103.859 113.693 104.701 113.315C105.964 112.979 106.806 112.475 107.648 111.803C108.069 111.173 108.49 110.376 108.49 109.368C108.49 108.15 107.648 107.227 106.806 106.555C105.964 105.883 105.122 105.421 104.28 105.127C103.438 104.833 102.595 104.161 101.332 103.028C100.49 101.936 99.6481 100.425 99.227 98.4512L98.806 96.016C98.3849 94.8823 98.3849 94.0426 97.9639 93.5807C97.9639 93.4548 97.9639 93.4128 97.5428 93.4128C97.1218 93.4128 96.2797 93.7907 95.8586 94.5044C95.0165 95.2182 94.1744 96.016 93.3323 96.8557C92.9112 97.6955 91.6481 98.4512 90.806 99.165C89.5428 99.8788 88.2797 100.257 87.4376 100.257C84.0691 100.257 82.3849 99.333 81.1218 97.5275C80.2797 96.1839 79.8586 94.6304 79.4376 92.8669C78.5955 92.1532 78.1744 91.7753 77.3323 91.7753C75.227 91.7753 74.3849 93.9586 74.3849 98.3673V99.7528V104.623V108.36V110.166V111.425C74.3849 111.803 73.9639 112.643 73.9639 113.945C73.5428 115.246 73.5428 116.724 73.5428 118.395L72.7007 123.056V123.127V123.14ZM11.6481 120.906C15.5639 121.477 20.0692 122.699 25.1639 124.563C30.2586 126.411 33.3744 127.376 34.5113 127.376C37.4586 127.376 39.9007 126.075 41.9218 123.56C42.3428 122.745 42.3428 121.788 42.3428 120.688C42.3428 116.72 39.9428 111.702 35.1428 105.614L32.2797 101.793C31.6902 100.996 30.9744 99.778 30.0481 98.1405C29.1639 96.503 28.3639 95.2434 27.7323 94.3617C27.1849 93.396 26.3007 92.4303 25.1639 91.4646C24.0692 90.4989 22.806 89.8691 21.4165 89.5332C19.6481 89.8691 18.427 90.4569 17.8376 91.2546C17.2481 92.0524 16.9113 92.9341 16.827 93.8578C16.7007 94.7396 16.4481 95.3274 16.027 95.6213C15.606 95.8732 14.8902 96.0832 13.9218 96.2931C13.7113 96.2931 13.3323 96.2931 12.7849 96.3351H11.6481C9.41652 96.3351 7.90073 96.587 7.10073 97.0069C6.0481 98.2245 5.50073 99.6101 5.50073 101.08C5.50073 101.751 5.66915 102.885 6.00599 104.481C6.34284 106.034 6.51126 107.294 6.51126 108.175C6.51126 109.897 6.00599 111.618 4.95336 113.34C3.90073 115.145 3.35336 116.489 3.35336 117.446C3.77442 119.075 6.55336 120.222 11.6481 120.893V120.906ZM25.6692 82.727C25.6692 79.8299 26.427 76.6389 27.9849 72.8601C29.5007 69.0812 31.0165 66.562 32.4902 64.8825C32.406 64.4626 32.1955 64.4626 31.8586 64.4626L31.4376 64.0427C30.2165 65.3024 28.7428 68.2415 26.9744 72.4402C25.206 76.219 24.2797 79.704 24.2797 82.2652C24.2797 84.1546 24.7428 85.7921 25.5849 87.2197C26.5113 88.6052 28.7428 90.6206 32.2797 93.1818L36.7428 96.079C41.5007 100.194 44.027 103.049 44.027 104.728C44.027 105.61 43.606 106.492 42.3428 107.457C41.5007 108.465 40.3639 108.969 39.3955 108.969C39.3113 108.969 39.2691 109.053 39.2691 109.263C39.2691 109.305 39.6902 110.145 40.5744 111.782C42.3428 114.175 46.1323 115.351 51.1849 115.351C60.4481 115.351 67.606 111.572 73.0797 104.015C73.0797 101.915 73.0797 100.614 72.6586 100.068V98.5142C72.6586 95.7851 73.0797 93.7277 73.9218 92.3841C74.7639 91.0405 75.606 90.4107 76.8691 90.4107C77.7112 90.4107 78.5534 90.7046 79.3955 91.3344C79.8165 88.1014 79.8165 85.2883 79.8165 82.769C79.8165 78.9482 79.8165 75.7992 78.9744 72.8601C78.5534 70.3408 77.7112 68.2415 76.8691 66.562C76.027 65.3024 75.1849 64.0427 74.3428 62.7831C73.5007 61.5235 73.0797 60.2639 72.2376 59.0043C71.8165 57.3248 71.3955 56.0652 71.3955 53.9658C70.1323 51.8665 69.2902 49.7671 68.027 47.6677C67.1849 45.5684 66.3428 43.469 65.5007 41.7895L61.7112 44.7286C57.5007 47.6677 54.1323 48.9274 51.1849 48.9274C48.6586 48.9274 46.5534 48.5075 45.2902 46.828L42.7639 44.7286C42.7639 45.9883 42.3428 47.6677 41.5007 49.3472L38.8481 54.3857C37.6691 57.3248 37.0376 59.0043 36.9113 60.2639C36.7428 61.1036 36.6165 61.9434 36.5323 61.9434L33.3744 68.2415C29.9639 74.5395 28.2376 80.3758 28.2376 85.2043C28.2376 86.17 28.3218 87.1777 28.4902 88.1854C26.5955 86.8838 25.6692 85.0783 25.6692 82.727V82.727ZM55.8165 122.447C50.3428 122.447 46.1323 123.186 43.1849 124.651V124.525C41.0797 127.045 38.7218 128.346 35.4376 128.346C33.3744 128.346 30.1323 127.548 25.7534 125.953C21.3323 124.441 17.4165 123.282 14.006 122.518C13.6692 122.422 12.9113 122.279 11.6902 122.086C10.5113 121.897 9.41652 121.704 8.4481 121.511C7.56389 121.322 6.55336 121.036 5.45863 120.65C4.40599 120.318 3.56389 119.886 2.93231 119.361C2.35126 118.832 2.06494 118.236 2.06494 117.568C2.06494 116.896 2.2081 116.178 2.49442 115.414C2.76389 114.952 3.05863 114.49 3.35336 114.07C3.6481 113.609 3.90073 113.189 4.06915 112.769C4.32178 112.391 4.4902 112.013 4.65863 111.593C4.82705 111.215 4.99547 110.837 5.07968 110.376C5.16389 109.956 5.2481 109.536 5.2481 109.116C5.2481 108.696 5.07968 107.436 4.74284 105.211C4.40599 103.028 4.23757 101.642 4.23757 101.054C4.23757 99.207 4.65863 97.7375 5.58494 96.6878C6.51126 95.6381 7.39547 95.0923 8.32178 95.0923H13.1639C13.5428 95.0923 14.1323 94.8823 15.0165 94.3785C15.3113 93.7067 15.5639 93.1608 15.7323 92.657C15.9428 92.1532 16.027 91.7753 16.1113 91.6073C16.1955 91.3554 16.2797 91.1035 16.3639 90.8935C16.5323 90.5996 16.7428 90.2637 17.0376 89.9278C16.7007 89.508 16.5323 88.9621 16.5323 88.2903C16.5323 87.8285 16.5323 87.4086 16.6165 87.1567C16.6165 85.6451 17.3323 83.5038 18.8481 80.6907L20.3218 78.0455C21.5428 75.7782 22.4691 74.0987 23.1428 72.4192C23.8586 70.7397 24.6165 68.2205 25.4586 64.8615C26.1323 61.9224 27.7323 58.9833 30.2586 56.0442L33.4165 52.2653C35.606 49.7461 37.0376 47.6467 37.8376 45.9673C38.6376 44.2878 39.0586 42.1884 39.0586 40.5089C39.0586 39.6692 38.8481 37.15 38.3849 32.9512C37.9639 28.7525 37.7534 24.5538 37.7534 20.775C37.7534 17.8358 38.006 15.7365 38.5534 13.6371C39.1007 11.5378 40.0692 9.43842 41.5007 7.75893C42.7639 6.07944 44.4481 4.39996 46.9744 3.56021C49.5007 2.72047 52.4481 2.3006 55.8165 2.3006C57.0797 2.3006 58.3428 2.3006 59.606 2.72047C60.8691 2.72047 62.5534 3.14034 64.6586 3.98009C66.3428 4.81983 68.027 5.65957 69.2902 6.91919C70.9744 8.1788 72.2376 10.2782 73.5007 12.3775C74.3428 14.8967 75.1849 17.416 75.606 20.775C76.027 22.8743 76.027 24.9737 76.4481 27.9128C76.4481 30.432 76.8691 32.1115 76.8691 33.3711C77.2902 34.6307 77.2902 36.3102 77.7112 38.4096C78.1323 40.0891 78.5534 41.7685 79.3955 43.0282C80.2376 44.7076 81.0797 46.3871 82.3428 48.0666C83.606 50.166 85.2902 52.2653 86.9744 54.7846C90.7639 58.9833 93.7112 63.6019 95.3955 68.2205C97.5007 72.4192 98.7639 77.8775 98.7639 83.7137C98.7639 86.6109 98.3428 89.424 97.5007 92.1532C98.3428 92.1532 98.7639 92.4891 99.1849 93.0769C99.606 93.6647 100.027 94.9243 100.448 96.8977L100.869 100.005C101.29 100.928 101.711 101.81 102.974 102.566C103.817 103.322 104.659 103.952 105.922 104.455C106.764 104.875 108.027 105.463 108.869 106.219C109.711 107.059 110.132 107.94 110.132 108.864C110.132 110.292 109.711 111.341 108.869 112.097C108.027 112.937 107.185 113.525 105.922 113.903C105.08 114.322 103.395 115.162 100.869 116.346C98.7639 117.589 96.6586 119.096 94.5534 120.881L90.3428 124.454C88.6586 126.091 86.9744 127.267 85.7112 127.981C84.4481 128.737 82.7639 129.114 81.0797 129.114L78.1323 128.779C74.7639 127.897 72.6586 126.217 71.3955 123.656C64.6586 122.842 59.1849 122.439 55.8165 122.439" fill="#464646"/>
</svg>
