<svg width="560" height="235" viewBox="0 0 560 235" fill="none" xmlns="http://www.w3.org/2000/svg">
<g filter="url(#filter0_d)">
<rect x="135" width="333" height="63" rx="14" fill="#2C2C2C"/>
</g>
<path d="M212.588 24.6364H208.923V22.9744C208.923 21.3551 209.605 20.5028 211.267 20.5028C211.991 20.5028 212.418 20.6733 212.673 20.7585L213.398 18.5852C213.014 18.4148 212.247 18.1591 211.011 18.1591C208.668 18.1591 206.409 19.5653 206.409 22.3778V24.6364H203.767V26.767H206.409V41H208.923V26.767H212.588V24.6364ZM216.112 41H218.626V30.6449C218.626 28.429 220.373 26.8097 222.759 26.8097C223.431 26.8097 224.123 26.9375 224.294 26.9801V24.4233C224.006 24.402 223.345 24.3807 222.972 24.3807C221.012 24.3807 219.308 25.4886 218.711 27.108H218.541V24.6364H216.112V41ZM233.637 41.3409C236.96 41.3409 239.389 39.679 240.156 37.2074L237.727 36.5256C237.088 38.2301 235.607 39.0824 233.637 39.0824C230.686 39.0824 228.651 37.1754 228.534 33.6705H240.412V32.6051C240.412 26.5114 236.79 24.4233 233.381 24.4233C228.949 24.4233 226.009 27.9176 226.009 32.946C226.009 37.9744 228.906 41.3409 233.637 41.3409ZM228.534 31.4972C228.704 28.951 230.504 26.6818 233.381 26.6818C236.108 26.6818 237.855 28.7273 237.855 31.4972H228.534ZM246.751 31.1562C246.751 28.3011 248.519 26.6818 250.927 26.6818C253.26 26.6818 254.677 28.2053 254.677 30.7727V41H257.191V30.6023C257.191 26.4261 254.965 24.4233 251.651 24.4233C249.18 24.4233 247.646 25.5312 246.879 27.1932H246.666V24.6364H244.237V41H246.751V31.1562ZM268.433 41.3409C272.055 41.3409 274.442 39.125 274.868 36.2273H272.354C271.885 38.017 270.393 39.0824 268.433 39.0824C265.45 39.0824 263.533 36.6108 263.533 32.8182C263.533 29.1108 265.493 26.6818 268.433 26.6818C270.649 26.6818 271.97 28.0455 272.354 29.5369H274.868C274.442 26.4688 271.842 24.4233 268.391 24.4233C263.959 24.4233 261.018 27.9176 261.018 32.9034C261.018 37.804 263.831 41.3409 268.433 41.3409ZM281.058 31.1562C281.058 28.3011 282.879 26.6818 285.362 26.6818C287.727 26.6818 289.154 28.1733 289.154 30.7727V41H291.668V30.6023C291.668 26.3942 289.431 24.4233 286.086 24.4233C283.508 24.4233 282.038 25.4993 281.271 27.1932H281.058V19.1818H278.543V41H281.058V31.1562ZM305.643 30.4744H296.097V32.8182H305.643V30.4744ZM314.882 41.3835C317.737 41.3835 319.229 39.8494 319.74 38.7841H319.868V41H322.382V30.2188C322.382 25.0199 318.419 24.4233 316.331 24.4233C313.859 24.4233 311.047 25.2756 309.768 28.2585L312.155 29.1108C312.709 27.9176 314.019 26.6392 316.416 26.6392C318.728 26.6392 319.868 27.8643 319.868 29.9631V30.0483C319.868 31.2628 318.632 31.1562 315.649 31.5398C312.613 31.9339 309.3 32.6051 309.3 36.3551C309.3 39.5511 311.771 41.3835 314.882 41.3835ZM315.266 39.125C313.263 39.125 311.814 38.2301 311.814 36.483C311.814 34.5653 313.561 33.9688 315.521 33.7131C316.587 33.5852 319.442 33.2869 319.868 32.7756V35.0767C319.868 37.1222 318.249 39.125 315.266 39.125ZM333.619 41.3409C337.241 41.3409 339.627 39.125 340.053 36.2273H337.539C337.07 38.017 335.579 39.0824 333.619 39.0824C330.636 39.0824 328.718 36.6108 328.718 32.8182C328.718 29.1108 330.678 26.6818 333.619 26.6818C335.835 26.6818 337.156 28.0455 337.539 29.5369H340.053C339.627 26.4688 337.028 24.4233 333.576 24.4233C329.144 24.4233 326.204 27.9176 326.204 32.9034C326.204 37.804 329.017 41.3409 333.619 41.3409ZM350.377 41.3409C353.999 41.3409 356.385 39.125 356.811 36.2273H354.297C353.828 38.017 352.337 39.0824 350.377 39.0824C347.394 39.0824 345.476 36.6108 345.476 32.8182C345.476 29.1108 347.436 26.6818 350.377 26.6818C352.593 26.6818 353.914 28.0455 354.297 29.5369H356.811C356.385 26.4688 353.786 24.4233 350.334 24.4233C345.902 24.4233 342.962 27.9176 342.962 32.9034C342.962 37.804 345.774 41.3409 350.377 41.3409ZM367.347 41.3409C370.671 41.3409 373.1 39.679 373.867 37.2074L371.438 36.5256C370.799 38.2301 369.318 39.0824 367.347 39.0824C364.396 39.0824 362.362 37.1754 362.244 33.6705H374.123V32.6051C374.123 26.5114 370.501 24.4233 367.092 24.4233C362.66 24.4233 359.72 27.9176 359.72 32.946C359.72 37.9744 362.617 41.3409 367.347 41.3409ZM362.244 31.4972C362.415 28.951 364.215 26.6818 367.092 26.6818C369.819 26.6818 371.566 28.7273 371.566 31.4972H362.244ZM380.462 31.1562C380.462 28.3011 382.23 26.6818 384.638 26.6818C386.971 26.6818 388.388 28.2053 388.388 30.7727V41H390.902V30.6023C390.902 26.4261 388.676 24.4233 385.362 24.4233C382.891 24.4233 381.357 25.5312 380.59 27.1932H380.377V24.6364H377.948V41H380.462V31.1562ZM402.613 24.6364H399.119V20.7159H396.604V24.6364H394.133V26.767H396.604V36.9943C396.604 39.8494 398.906 41.2131 401.036 41.2131C401.974 41.2131 402.57 41.0426 402.911 40.9148L402.4 38.6562C402.187 38.6989 401.846 38.7841 401.292 38.7841C400.184 38.7841 399.119 38.4432 399.119 36.3125V26.767H402.613V24.6364ZM417.693 28.3011C416.904 25.9787 415.136 24.4233 411.897 24.4233C408.446 24.4233 405.889 26.3835 405.889 29.1534C405.889 31.4119 407.231 32.9247 410.235 33.6278L412.963 34.267C414.614 34.6506 415.392 35.4389 415.392 36.5682C415.392 37.9744 413.9 39.125 411.556 39.125C409.5 39.125 408.211 38.2408 407.764 36.483L405.377 37.0795C405.963 39.8601 408.254 41.3409 411.599 41.3409C415.402 41.3409 417.991 39.2635 417.991 36.4403C417.991 34.1605 416.564 32.7223 413.645 32.0085L411.216 31.4119C409.277 30.9325 408.403 30.2827 408.403 29.0256C408.403 27.6193 409.895 26.5966 411.897 26.5966C414.092 26.5966 414.998 27.8111 415.434 28.9403L417.693 28.3011Z" fill="white"/>
<path d="M174.688 28.1417L162.312 21.438" stroke="#BBBBBB" stroke-width="3" stroke-linecap="round" stroke-linejoin="round"/>
<path d="M180.875 36.6666V26.3333C180.875 25.8803 180.747 25.4353 180.506 25.0431C180.265 24.6509 179.918 24.3252 179.5 24.0987L169.875 18.932C169.457 18.7053 168.983 18.5859 168.5 18.5859C168.017 18.5859 167.543 18.7053 167.125 18.932L157.5 24.0987C157.082 24.3252 156.735 24.6509 156.494 25.0431C156.253 25.4353 156.125 25.8803 156.125 26.3333V36.6666C156.125 37.1196 156.253 37.5646 156.494 37.9568C156.735 38.349 157.082 38.6747 157.5 38.9012L167.125 44.0679C167.543 44.2946 168.017 44.414 168.5 44.414C168.983 44.414 169.457 44.2946 169.875 44.0679L179.5 38.9012C179.918 38.6747 180.265 38.349 180.506 37.9568C180.747 37.5646 180.875 37.1196 180.875 36.6666Z" stroke="#BBBBBB" stroke-width="3" stroke-linecap="round" stroke-linejoin="round"/>
<path d="M156.496 24.99L168.5 31.5129L180.504 24.99" stroke="#BBBBBB" stroke-width="3" stroke-linecap="round" stroke-linejoin="round"/>
<path d="M168.5 44.52V31.5" stroke="#BBBBBB" stroke-width="3" stroke-linecap="round" stroke-linejoin="round"/>
<g filter="url(#filter1_d)">
<rect x="4" y="82" width="262" height="63" rx="14" fill="#2C2C2C"/>
</g>
<path d="M79.1165 123.384C81.9716 123.384 83.4631 121.849 83.9744 120.784H84.1023V123H86.6165V112.219C86.6165 107.02 82.6534 106.423 80.5653 106.423C78.0938 106.423 75.2812 107.276 74.0028 110.259L76.3892 111.111C76.9432 109.918 78.2536 108.639 80.6506 108.639C82.9624 108.639 84.1023 109.864 84.1023 111.963V112.048C84.1023 113.263 82.8665 113.156 79.8835 113.54C76.8473 113.934 73.5341 114.605 73.5341 118.355C73.5341 121.551 76.0057 123.384 79.1165 123.384ZM79.5 121.125C77.4972 121.125 76.0483 120.23 76.0483 118.483C76.0483 116.565 77.7955 115.969 79.7557 115.713C80.821 115.585 83.6761 115.287 84.1023 114.776V117.077C84.1023 119.122 82.483 121.125 79.5 121.125ZM93.7196 101.182H91.2054V123H93.7196V101.182ZM100.839 101.182H98.3246V123H100.839V101.182ZM114.819 112.474H105.273V114.818H114.819V112.474ZM126.103 123.341C129.427 123.341 131.856 121.679 132.623 119.207L130.194 118.526C129.555 120.23 128.074 121.082 126.103 121.082C123.152 121.082 121.118 119.175 121 115.67H132.879V114.605C132.879 108.511 129.257 106.423 125.848 106.423C121.416 106.423 118.475 109.918 118.475 114.946C118.475 119.974 121.373 123.341 126.103 123.341ZM121 113.497C121.171 110.951 122.971 108.682 125.848 108.682C128.575 108.682 130.322 110.727 130.322 113.497H121ZM136.703 123H139.218V112.773C139.218 110.376 140.965 108.682 142.925 108.682C144.832 108.682 146.164 109.928 146.164 111.793V123H148.721V112.347C148.721 110.237 150.042 108.682 152.343 108.682C154.132 108.682 155.667 109.63 155.667 112.048V123H158.181V112.048C158.181 108.202 156.114 106.423 153.195 106.423C150.851 106.423 149.136 107.499 148.294 109.193H148.124C147.314 107.446 145.887 106.423 143.735 106.423C141.604 106.423 140.027 107.446 139.346 109.193H139.132V106.636H136.703V123ZM169.425 123.341C173.857 123.341 176.84 119.974 176.84 114.903C176.84 109.79 173.857 106.423 169.425 106.423C164.994 106.423 162.011 109.79 162.011 114.903C162.011 119.974 164.994 123.341 169.425 123.341ZM169.425 121.082C166.059 121.082 164.525 118.185 164.525 114.903C164.525 111.622 166.059 108.682 169.425 108.682C172.792 108.682 174.326 111.622 174.326 114.903C174.326 118.185 172.792 121.082 169.425 121.082ZM180.678 106.636V124.193C180.678 125.855 179.996 126.793 178.462 126.793H177.993V129.136H178.505C181.658 129.136 183.192 127.219 183.192 124.193V106.636H180.678ZM181.914 103.909C182.894 103.909 183.704 103.142 183.704 102.205C183.704 101.267 182.894 100.5 181.914 100.5C180.934 100.5 180.124 101.267 180.124 102.205C180.124 103.142 180.934 103.909 181.914 103.909ZM187.797 123H190.311V106.636H187.797V123ZM189.076 103.909C190.056 103.909 190.865 103.142 190.865 102.205C190.865 101.267 190.056 100.5 189.076 100.5C188.096 100.5 187.286 101.267 187.286 102.205C187.286 103.142 188.096 103.909 189.076 103.909ZM206.507 110.301C205.719 107.979 203.95 106.423 200.712 106.423C197.26 106.423 194.703 108.384 194.703 111.153C194.703 113.412 196.046 114.925 199.05 115.628L201.777 116.267C203.428 116.651 204.206 117.439 204.206 118.568C204.206 119.974 202.715 121.125 200.371 121.125C198.315 121.125 197.026 120.241 196.578 118.483L194.192 119.08C194.778 121.86 197.068 123.341 200.414 123.341C204.217 123.341 206.806 121.263 206.806 118.44C206.806 116.161 205.378 114.722 202.459 114.009L200.03 113.412C198.091 112.933 197.218 112.283 197.218 111.026C197.218 109.619 198.709 108.597 200.712 108.597C202.906 108.597 203.812 109.811 204.249 110.94L206.507 110.301Z" fill="white"/>
<path d="M43.6875 110.142L31.3125 103.438" stroke="#BBBBBB" stroke-width="3" stroke-linecap="round" stroke-linejoin="round"/>
<path d="M49.875 118.667V108.333C49.8745 107.88 49.7472 107.435 49.5059 107.043C49.2645 106.651 48.9176 106.325 48.5 106.099L38.875 100.932C38.4569 100.705 37.9827 100.586 37.5 100.586C37.0173 100.586 36.5431 100.705 36.125 100.932L26.5 106.099C26.0824 106.325 25.7355 106.651 25.4941 107.043C25.2528 107.435 25.1255 107.88 25.125 108.333V118.667C25.1255 119.12 25.2528 119.565 25.4941 119.957C25.7355 120.349 26.0824 120.675 26.5 120.901L36.125 126.068C36.5431 126.295 37.0173 126.414 37.5 126.414C37.9827 126.414 38.4569 126.295 38.875 126.068L48.5 120.901C48.9176 120.675 49.2645 120.349 49.5059 119.957C49.7472 119.565 49.8745 119.12 49.875 118.667Z" stroke="#BBBBBB" stroke-width="3" stroke-linecap="round" stroke-linejoin="round"/>
<path d="M25.4961 106.99L37.4998 113.513L49.5036 106.99" stroke="#BBBBBB" stroke-width="3" stroke-linecap="round" stroke-linejoin="round"/>
<path d="M37.5 126.52V113.5" stroke="#BBBBBB" stroke-width="3" stroke-linecap="round" stroke-linejoin="round"/>
<g filter="url(#filter2_d)">
<rect x="294" y="82" width="262" height="63" rx="14" fill="#2C2C2C"/>
</g>
<path d="M370.48 123.341C373.634 123.341 374.699 121.381 375.253 120.486H375.551V123H377.98V101.182H375.466V109.236H375.253C374.699 108.384 373.719 106.423 370.523 106.423C366.389 106.423 363.534 109.705 363.534 114.861C363.534 120.06 366.389 123.341 370.48 123.341ZM370.821 121.082C367.668 121.082 366.048 118.312 366.048 114.818C366.048 111.366 367.625 108.682 370.821 108.682C373.889 108.682 375.509 111.153 375.509 114.818C375.509 118.526 373.847 121.082 370.821 121.082ZM387.749 123.384C390.604 123.384 392.096 121.849 392.607 120.784H392.735V123H395.249V112.219C395.249 107.02 391.286 106.423 389.198 106.423C386.727 106.423 383.914 107.276 382.636 110.259L385.022 111.111C385.576 109.918 386.886 108.639 389.283 108.639C391.595 108.639 392.735 109.864 392.735 111.963V112.048C392.735 113.263 391.499 113.156 388.516 113.54C385.48 113.934 382.167 114.605 382.167 118.355C382.167 121.551 384.638 123.384 387.749 123.384ZM388.133 121.125C386.13 121.125 384.681 120.23 384.681 118.483C384.681 116.565 386.428 115.969 388.388 115.713C389.454 115.585 392.309 115.287 392.735 114.776V117.077C392.735 119.122 391.116 121.125 388.133 121.125ZM406.017 123.341C409.171 123.341 410.236 121.381 410.79 120.486H411.088V123H413.517V101.182H411.003V109.236H410.79C410.236 108.384 409.256 106.423 406.06 106.423C401.926 106.423 399.071 109.705 399.071 114.861C399.071 120.06 401.926 123.341 406.017 123.341ZM406.358 121.082C403.205 121.082 401.585 118.312 401.585 114.818C401.585 111.366 403.162 108.682 406.358 108.682C409.426 108.682 411.046 111.153 411.046 114.818C411.046 118.526 409.384 121.082 406.358 121.082ZM427.846 112.474H418.301V114.818H427.846V112.474ZM432.27 106.636V124.193C432.27 125.855 431.588 126.793 430.054 126.793H429.585V129.136H430.097C433.25 129.136 434.784 127.219 434.784 124.193V106.636H432.27ZM433.506 103.909C434.486 103.909 435.295 103.142 435.295 102.205C435.295 101.267 434.486 100.5 433.506 100.5C432.526 100.5 431.716 101.267 431.716 102.205C431.716 103.142 432.526 103.909 433.506 103.909ZM446.037 123.341C450.469 123.341 453.452 119.974 453.452 114.903C453.452 109.79 450.469 106.423 446.037 106.423C441.605 106.423 438.622 109.79 438.622 114.903C438.622 119.974 441.605 123.341 446.037 123.341ZM446.037 121.082C442.67 121.082 441.136 118.185 441.136 114.903C441.136 111.622 442.67 108.682 446.037 108.682C449.403 108.682 450.937 111.622 450.937 114.903C450.937 118.185 449.403 121.082 446.037 121.082ZM457.289 123H459.804V116.874L461.561 115.244L467.687 123H470.883L463.458 113.625L470.372 106.636H467.261L460.102 113.923H459.804V101.182H457.289V123ZM479.795 123.341C483.119 123.341 485.548 121.679 486.315 119.207L483.886 118.526C483.246 120.23 481.766 121.082 479.795 121.082C476.844 121.082 474.809 119.175 474.692 115.67H486.57V114.605C486.57 108.511 482.948 106.423 479.539 106.423C475.107 106.423 472.167 109.918 472.167 114.946C472.167 119.974 475.065 123.341 479.795 123.341ZM474.692 113.497C474.862 110.951 476.663 108.682 479.539 108.682C482.266 108.682 484.013 110.727 484.013 113.497H474.692ZM501.986 110.301C501.197 107.979 499.429 106.423 496.19 106.423C492.739 106.423 490.182 108.384 490.182 111.153C490.182 113.412 491.524 114.925 494.528 115.628L497.256 116.267C498.907 116.651 499.685 117.439 499.685 118.568C499.685 119.974 498.193 121.125 495.849 121.125C493.793 121.125 492.504 120.241 492.057 118.483L489.67 119.08C490.256 121.86 492.547 123.341 495.892 123.341C499.695 123.341 502.284 121.263 502.284 118.44C502.284 116.161 500.857 114.722 497.938 114.009L495.509 113.412C493.57 112.933 492.696 112.283 492.696 111.026C492.696 109.619 494.188 108.597 496.19 108.597C498.385 108.597 499.29 109.811 499.727 110.94L501.986 110.301Z" fill="white"/>
<path d="M333.375 110.142L320.625 103.438" stroke="#BBBBBB" stroke-width="3" stroke-linecap="round" stroke-linejoin="round"/>
<path d="M339.75 118.667V108.333C339.749 107.88 339.618 107.435 339.37 107.043C339.121 106.651 338.764 106.325 338.333 106.099L328.417 100.932C327.986 100.705 327.497 100.586 327 100.586C326.503 100.586 326.014 100.705 325.583 100.932L315.667 106.099C315.236 106.325 314.879 106.651 314.63 107.043C314.382 107.435 314.251 107.88 314.25 108.333V118.667C314.251 119.12 314.382 119.565 314.63 119.957C314.879 120.349 315.236 120.675 315.667 120.901L325.583 126.068C326.014 126.295 326.503 126.414 327 126.414C327.497 126.414 327.986 126.295 328.417 126.068L338.333 120.901C338.764 120.675 339.121 120.349 339.37 119.957C339.618 119.565 339.749 119.12 339.75 118.667Z" stroke="#BBBBBB" stroke-width="3" stroke-linecap="round" stroke-linejoin="round"/>
<path d="M314.632 106.99L327 113.513L339.367 106.99" stroke="#BBBBBB" stroke-width="3" stroke-linecap="round" stroke-linejoin="round"/>
<path d="M327 126.52V113.5" stroke="#BBBBBB" stroke-width="3" stroke-linecap="round" stroke-linejoin="round"/>
<g filter="url(#filter3_d)">
<rect x="86" y="164" width="387" height="63" rx="14" fill="#2C2C2C"/>
</g>
<path d="M158.815 195.156C158.815 192.301 160.637 190.682 163.119 190.682C165.484 190.682 166.912 192.173 166.912 194.773V205H169.426V194.602C169.426 190.394 167.189 188.423 163.844 188.423C161.266 188.423 159.795 189.499 159.028 191.193H158.815V183.182H156.301V205H158.815V195.156ZM181.142 188.636H177.648V184.716H175.134V188.636H172.662V190.767H175.134V200.994C175.134 203.849 177.435 205.213 179.566 205.213C180.503 205.213 181.1 205.043 181.441 204.915L180.929 202.656C180.716 202.699 180.375 202.784 179.821 202.784C178.713 202.784 177.648 202.443 177.648 200.312V190.767H181.142V188.636ZM184.924 205H187.438V194.773C187.438 192.376 189.186 190.682 191.146 190.682C193.053 190.682 194.384 191.928 194.384 193.793V205H196.941V194.347C196.941 192.237 198.262 190.682 200.563 190.682C202.353 190.682 203.887 191.63 203.887 194.048V205H206.401V194.048C206.401 190.202 204.335 188.423 201.416 188.423C199.072 188.423 197.357 189.499 196.515 191.193H196.345C195.535 189.446 194.107 188.423 191.955 188.423C189.825 188.423 188.248 189.446 187.566 191.193H187.353V188.636H184.924V205ZM213.513 183.182H210.998V205H213.513V183.182ZM227.493 194.474H217.947V196.818H227.493V194.474ZM242.229 198.31C242.229 201.378 239.885 202.784 238.01 202.784C235.922 202.784 234.431 201.25 234.431 198.864V188.636H231.916V199.034C231.916 203.21 234.132 205.213 237.2 205.213C239.672 205.213 241.291 203.892 242.058 202.23H242.229V205H244.743V188.636H242.229V198.31ZM256.464 188.636H252.97V184.716H250.456V188.636H247.984V190.767H250.456V200.994C250.456 203.849 252.757 205.213 254.888 205.213C255.825 205.213 256.422 205.043 256.763 204.915L256.251 202.656C256.038 202.699 255.697 202.784 255.143 202.784C254.036 202.784 252.97 202.443 252.97 200.312V190.767H256.464V188.636ZM260.246 205H262.761V188.636H260.246V205ZM261.525 185.909C262.505 185.909 263.315 185.142 263.315 184.205C263.315 183.267 262.505 182.5 261.525 182.5C260.545 182.5 259.735 183.267 259.735 184.205C259.735 185.142 260.545 185.909 261.525 185.909ZM269.88 183.182H267.366V205H269.88V183.182ZM286.076 192.301C285.287 189.979 283.519 188.423 280.28 188.423C276.828 188.423 274.272 190.384 274.272 193.153C274.272 195.412 275.614 196.925 278.618 197.628L281.346 198.267C282.997 198.651 283.775 199.439 283.775 200.568C283.775 201.974 282.283 203.125 279.939 203.125C277.883 203.125 276.594 202.241 276.147 200.483L273.76 201.08C274.346 203.86 276.637 205.341 279.982 205.341C283.785 205.341 286.374 203.263 286.374 200.44C286.374 198.161 284.946 196.722 282.027 196.009L279.598 195.412C277.659 194.933 276.786 194.283 276.786 193.026C276.786 191.619 278.277 190.597 280.28 190.597C282.475 190.597 283.38 191.811 283.817 192.94L286.076 192.301ZM299.534 194.474H289.988V196.818H299.534V194.474ZM303.957 211.136H306.472V202.486H306.685C307.239 203.381 308.304 205.341 311.457 205.341C315.548 205.341 318.403 202.06 318.403 196.861C318.403 191.705 315.548 188.423 311.415 188.423C308.219 188.423 307.239 190.384 306.685 191.236H306.386V188.636H303.957V211.136ZM306.429 196.818C306.429 193.153 308.048 190.682 311.116 190.682C314.312 190.682 315.889 193.366 315.889 196.818C315.889 200.312 314.27 203.082 311.116 203.082C308.091 203.082 306.429 200.526 306.429 196.818ZM327.054 205.384C329.909 205.384 331.401 203.849 331.912 202.784H332.04V205H334.554V194.219C334.554 189.02 330.591 188.423 328.503 188.423C326.031 188.423 323.219 189.276 321.94 192.259L324.327 193.111C324.881 191.918 326.191 190.639 328.588 190.639C330.9 190.639 332.04 191.864 332.04 193.963V194.048C332.04 195.263 330.804 195.156 327.821 195.54C324.785 195.934 321.472 196.605 321.472 200.355C321.472 203.551 323.943 205.384 327.054 205.384ZM327.438 203.125C325.435 203.125 323.986 202.23 323.986 200.483C323.986 198.565 325.733 197.969 327.693 197.713C328.759 197.585 331.614 197.287 332.04 196.776V199.077C332.04 201.122 330.42 203.125 327.438 203.125ZM345.791 205.341C349.413 205.341 351.799 203.125 352.225 200.227H349.711C349.242 202.017 347.751 203.082 345.791 203.082C342.808 203.082 340.89 200.611 340.89 196.818C340.89 193.111 342.85 190.682 345.791 190.682C348.007 190.682 349.328 192.045 349.711 193.537H352.225C351.799 190.469 349.2 188.423 345.748 188.423C341.316 188.423 338.376 191.918 338.376 196.903C338.376 201.804 341.188 205.341 345.791 205.341ZM355.901 205H358.415V198.874L360.173 197.244L366.298 205H369.494L362.069 195.625L368.983 188.636H365.872L358.713 195.923H358.415V183.182H355.901V205ZM377.034 205.384C379.89 205.384 381.381 203.849 381.892 202.784H382.02V205H384.534V194.219C384.534 189.02 380.571 188.423 378.483 188.423C376.012 188.423 373.199 189.276 371.921 192.259L374.307 193.111C374.861 191.918 376.172 190.639 378.569 190.639C380.88 190.639 382.02 191.864 382.02 193.963V194.048C382.02 195.263 380.784 195.156 377.801 195.54C374.765 195.934 371.452 196.605 371.452 200.355C371.452 203.551 373.924 205.384 377.034 205.384ZM377.418 203.125C375.415 203.125 373.966 202.23 373.966 200.483C373.966 198.565 375.713 197.969 377.674 197.713C378.739 197.585 381.594 197.287 382.02 196.776V199.077C382.02 201.122 380.401 203.125 377.418 203.125ZM395.729 211.477C399.649 211.477 402.802 209.688 402.802 205.469V188.636H400.373V191.236H400.118C399.564 190.384 398.541 188.423 395.345 188.423C391.211 188.423 388.356 191.705 388.356 196.733C388.356 201.847 391.339 204.744 395.302 204.744C398.498 204.744 399.521 202.869 400.075 201.974H400.288V205.298C400.288 208.026 398.371 209.261 395.729 209.261C392.756 209.261 391.712 207.695 391.041 206.79L389.038 208.196C390.061 209.911 392.074 211.477 395.729 211.477ZM395.643 202.486C392.49 202.486 390.871 200.099 390.871 196.69C390.871 193.366 392.447 190.682 395.643 190.682C398.711 190.682 400.331 193.153 400.331 196.69C400.331 200.312 398.669 202.486 395.643 202.486ZM414.265 205.341C417.589 205.341 420.018 203.679 420.785 201.207L418.356 200.526C417.717 202.23 416.236 203.082 414.265 203.082C411.314 203.082 409.28 201.175 409.162 197.67H421.041V196.605C421.041 190.511 417.419 188.423 414.01 188.423C409.578 188.423 406.638 191.918 406.638 196.946C406.638 201.974 409.535 205.341 414.265 205.341ZM409.162 195.497C409.333 192.951 411.133 190.682 414.01 190.682C416.737 190.682 418.484 192.727 418.484 195.497H409.162Z" fill="white"/>
<path d="M126.375 192.142L113.625 185.438" stroke="#BBBBBB" stroke-width="3" stroke-linecap="round" stroke-linejoin="round"/>
<path d="M132.75 200.667V190.333C132.749 189.88 132.618 189.435 132.37 189.043C132.121 188.651 131.764 188.325 131.333 188.099L121.417 182.932C120.986 182.705 120.497 182.586 120 182.586C119.503 182.586 119.014 182.705 118.583 182.932L108.667 188.099C108.236 188.325 107.879 188.651 107.63 189.043C107.382 189.435 107.251 189.88 107.25 190.333V200.667C107.251 201.12 107.382 201.565 107.63 201.957C107.879 202.349 108.236 202.675 108.667 202.901L118.583 208.068C119.014 208.295 119.503 208.414 120 208.414C120.497 208.414 120.986 208.295 121.417 208.068L131.333 202.901C131.764 202.675 132.121 202.349 132.37 201.957C132.618 201.565 132.749 201.12 132.75 200.667Z" stroke="#BBBBBB" stroke-width="3" stroke-linecap="round" stroke-linejoin="round"/>
<path d="M107.632 188.99L120 195.513L132.367 188.99" stroke="#BBBBBB" stroke-width="3" stroke-linecap="round" stroke-linejoin="round"/>
<path d="M120 208.52V195.5" stroke="#BBBBBB" stroke-width="3" stroke-linecap="round" stroke-linejoin="round"/>
<defs>
<filter id="filter0_d" x="131" y="0" width="341" height="71" filterUnits="userSpaceOnUse" color-interpolation-filters="sRGB">
<feFlood flood-opacity="0" result="BackgroundImageFix"/>
<feColorMatrix in="SourceAlpha" type="matrix" values="0 0 0 0 0 0 0 0 0 0 0 0 0 0 0 0 0 0 127 0" result="hardAlpha"/>
<feOffset dy="4"/>
<feGaussianBlur stdDeviation="2"/>
<feComposite in2="hardAlpha" operator="out"/>
<feColorMatrix type="matrix" values="0 0 0 0 0 0 0 0 0 0 0 0 0 0 0 0 0 0 0.25 0"/>
<feBlend mode="normal" in2="BackgroundImageFix" result="effect1_dropShadow"/>
<feBlend mode="normal" in="SourceGraphic" in2="effect1_dropShadow" result="shape"/>
</filter>
<filter id="filter1_d" x="0" y="82" width="270" height="71" filterUnits="userSpaceOnUse" color-interpolation-filters="sRGB">
<feFlood flood-opacity="0" result="BackgroundImageFix"/>
<feColorMatrix in="SourceAlpha" type="matrix" values="0 0 0 0 0 0 0 0 0 0 0 0 0 0 0 0 0 0 127 0" result="hardAlpha"/>
<feOffset dy="4"/>
<feGaussianBlur stdDeviation="2"/>
<feComposite in2="hardAlpha" operator="out"/>
<feColorMatrix type="matrix" values="0 0 0 0 0 0 0 0 0 0 0 0 0 0 0 0 0 0 0.25 0"/>
<feBlend mode="normal" in2="BackgroundImageFix" result="effect1_dropShadow"/>
<feBlend mode="normal" in="SourceGraphic" in2="effect1_dropShadow" result="shape"/>
</filter>
<filter id="filter2_d" x="290" y="82" width="270" height="71" filterUnits="userSpaceOnUse" color-interpolation-filters="sRGB">
<feFlood flood-opacity="0" result="BackgroundImageFix"/>
<feColorMatrix in="SourceAlpha" type="matrix" values="0 0 0 0 0 0 0 0 0 0 0 0 0 0 0 0 0 0 127 0" result="hardAlpha"/>
<feOffset dy="4"/>
<feGaussianBlur stdDeviation="2"/>
<feComposite in2="hardAlpha" operator="out"/>
<feColorMatrix type="matrix" values="0 0 0 0 0 0 0 0 0 0 0 0 0 0 0 0 0 0 0.25 0"/>
<feBlend mode="normal" in2="BackgroundImageFix" result="effect1_dropShadow"/>
<feBlend mode="normal" in="SourceGraphic" in2="effect1_dropShadow" result="shape"/>
</filter>
<filter id="filter3_d" x="82" y="164" width="395" height="71" filterUnits="userSpaceOnUse" color-interpolation-filters="sRGB">
<feFlood flood-opacity="0" result="BackgroundImageFix"/>
<feColorMatrix in="SourceAlpha" type="matrix" values="0 0 0 0 0 0 0 0 0 0 0 0 0 0 0 0 0 0 127 0" result="hardAlpha"/>
<feOffset dy="4"/>
<feGaussianBlur stdDeviation="2"/>
<feComposite in2="hardAlpha" operator="out"/>
<feColorMatrix type="matrix" values="0 0 0 0 0 0 0 0 0 0 0 0 0 0 0 0 0 0 0.25 0"/>
<feBlend mode="normal" in2="BackgroundImageFix" result="effect1_dropShadow"/>
<feBlend mode="normal" in="SourceGraphic" in2="effect1_dropShadow" result="shape"/>
</filter>
</defs>
</svg>
